%
M48
M72
T01C0.02165
T02C0.03200
T03C0.03543
T04C0.04000
T05C0.04331
T06C0.04700
T07C0.11811
%
T01
X430665Y306177
X237751Y406571
X229877Y418382
T02
X331491Y241217
X340113Y253776
X321491Y264839
X316491Y257339
X311491Y264839
X292869Y253776
X301491Y241217
X292869Y283776
X311491Y292398
X321491Y292398
X340113Y283776
X363736Y283776
X382358Y292398
X392358Y292398
X410980Y283776
X392358Y264839
X387358Y257339
X382358Y264839
X363736Y253776
X372358Y241217
X402358Y241217
X410980Y253776
X434602Y253776
X443224Y241217
X473224Y241217
X481846Y253776
X463224Y264839
X453224Y264839
X458224Y257339
X481846Y283776
X463224Y292398
X453224Y292398
X434602Y283776
X430665Y434878
X430665Y464878
X320428Y464878
X320428Y434878
T03
X171806Y286492
X146216Y286492
T04
X204798Y407437
X204798Y397437
X204798Y387437
X204798Y377437
X204798Y367437
X204798Y357437
X204798Y347437
X204798Y337437
X204798Y327437
X204798Y317437
X204798Y307437
X204798Y297437
X204798Y287437
X204798Y277437
X204798Y267437
X264798Y267437
X264798Y277437
X264798Y287437
X264798Y297437
X264798Y307437
X264798Y317437
X264798Y327437
X264798Y337437
X264798Y347437
X264798Y357437
X264798Y367437
X264798Y377437
X264798Y387437
X264798Y397437
X264798Y407437
X299405Y391453
X299405Y381453
X299405Y371453
X299405Y361453
X299405Y351453
X299405Y341453
X243814Y168382
X233814Y168382
X223814Y168382
X162948Y364012
X162948Y374012
X162948Y384012
X162948Y394012
X439405Y381453
X439405Y371453
X439405Y361453
X439405Y351453
T05
X316491Y221531
X340113Y213657
X363736Y213657
X387358Y221531
X410980Y213657
X434602Y213657
X458224Y221531
X481846Y213657
X481846Y165626
X434602Y165626
X410980Y165626
X363736Y165626
X340113Y165626
X292869Y165626
X292869Y213657
T06
X346019Y454878
X365704Y454878
X385389Y454878
X405074Y454878
X484877Y416413
X484877Y396728
X484877Y377043
X484877Y357358
X484877Y337673
X484877Y317988
X253499Y121965
X233814Y121965
X214129Y121965
X180665Y122043
X160980Y122043
X296806Y121965
X316491Y121965
X336176Y121965
X367673Y121965
X387358Y121965
X407043Y121965
X438539Y121965
X458224Y121965
X477909Y121965
T07
X131452Y473500
X501531Y103421
X131452Y103421
X501531Y473500
M30
